PathFileType	4	(X/Y/Z)	AB08\squats_1.trc
DataRate	CameraRate	NumFrames	NumMarkers	Units	OrigDataRate	OrigDataStartFrame	OrigNumFrames
200.000000	200.000000	4	35	mm	200.000000	158	317
Frame#	Time	C7			LSHO			STRN			LASI			RASI			RPSI			LGTR			RGTR			LTHC			LTHL			LTHR			LKNE			LMKNE			LSHC			LSHL			LSHR			LANK			LMANK			LMT1			LMT5			LCAL			RTHC			RTHL			RTHR			RKNE			RMKNE			RSHC			RSHL			RSHR			RANK			RMANK			RMT1			RMT5			RCAL			LPSI			
		X1	Y1	Z1	X2	Y2	Z2	X3	Y3	Z3	X4	Y4	Z4	X5	Y5	Z5	X6	Y6	Z6	X7	Y7	Z7	X8	Y8	Z8	X9	Y9	Z9	X10	Y10	Z10	X11	Y11	Z11	X12	Y12	Z12	X13	Y13	Z13	X14	Y14	Z14	X15	Y15	Z15	X16	Y16	Z16	X17	Y17	Z17	X18	Y18	Z18	X19	Y19	Z19	X20	Y20	Z20	X21	Y21	Z21	X22	Y22	Z22	X23	Y23	Z23	X24	Y24	Z24	X25	Y25	Z25	X26	Y26	Z26	X27	Y27	Z27	X28	Y28	Z28	X29	Y29	Z29	X30	Y30	Z30	X31	Y31	Z31	X32	Y32	Z32	X33	Y33	Z33	X34	Y34	Z34	X35	Y35	Z35	

159	31.07	-3583.104140861929	1019.891930855749	2526.219644003467	-3661.60346347111	934.9451813967064	2669.553537985708	-3589.151612140849	683.7451696497412	2537.759176443749	-3368.085175149577	631.8410017384999	2633.150717513438	-3362.81790369155	640.5194379521424	2397.613899927584	-3162.548156121688	684.6060159543489	2446.058860926593	-3235.03979606722	651.1194566685357	2717.190085542253	-3279.179676978827	626.3744201879475	2320.399161170524	-3433.198413623884	607.0926375985174	2712.47673660655	-3358.14183239374	439.5027494959965	2745.568976788896	-3478.474215322068	483.7125941627626	2800.810166718671	-3532.630249652011	423.5186312022428	2804.831238823356	-3591.835399521353	390.6403220677961	2705.716475019216	-3452.292959542681	393.674112961394	2746.400926386573	-3543.729197338211	300.3927575007229	2707.896212447444	-3419.874277616952	231.0630669721163	2789.449211801138	-3357.459892338619	97.21541138112032	2756.960441112194	-3401.644010434267	104.6712516486081	2668.803755010315	-3509.167680822169	53.55795282278568	2716.584753377371	-3468.288212650821	49.89754222313553	2810.988946064062	-3299.357148221443	87.37069007446401	2689.649881346947	-3469.13743954919	488.0773916057012	2267.224797599416	-3350.334098978296	412.3175170470745	2321.877466598056	-3475.886498600279	564.6960273042018	2419.564367178384	-3605.525342923957	420.8043980343225	2262.62313629517	-3624.59313381152	390.1825106039162	2380.243176709515	-3454.768382001015	243.4244256858059	2256.275377042782	-3462.487624003596	359.1828764205582	2320.689541976574	-3592.440979583719	279.4675796634397	2314.899984996347	-3379.752166723066	105.504832036704	2275.141173257323	-3427.49470130809	104.1665408626004	2363.698268976184	-3535.235365774621	55.8405873582799	2304.158407039939	-3481.33578221899	53.96958409210259	2224.769563112415	-3312.779947348675	94.53048597125844	2338.183301316773	-3151.546191598667	692.5650041922936	2553.516341276586	
160	31.075	-3583.104481776242	1019.065095669017	2526.354794741379	-3661.698630058567	934.0072479580837	2669.541850125152	-3589.466609036681	682.6817754957439	2537.738592781008	-3368.052953252152	631.1506126051991	2633.30083032903	-3362.918683527315	639.9422738499966	2397.71320650891	-3162.544961463054	683.6126254140618	2446.105128988927	-3234.931587447719	650.2383064924354	2717.250426146977	-3279.368232251551	625.6362053097307	2320.379583398982	-3433.01977832085	606.677083699329	2712.799085299019	-3358.25510862301	438.9056470492205	2745.865924555424	-3478.416841669169	483.3901401369144	2801.272502324405	-3532.638642020471	423.3547464543448	2805.344730092801	-3592.046766798172	390.610849601847	2706.272946655351	-3452.381157953608	393.6168358158731	2746.634238140932	-3543.90230491454	300.3713800558217	2708.264599531626	-3419.893893206407	230.9618530600948	2789.535964326393	-3357.472093861519	97.18195237044804	2756.789201897643	-3401.857941783956	104.7145323754472	2668.714611086434	-3509.210610463892	53.52878448804114	2716.615328126948	-3468.247792890133	49.90573823351975	2810.953995584804	-3299.49124909098	87.37449387492299	2689.362194986602	-3469.466632183655	487.7038469116553	2267.261107058316	-3350.688673831246	411.6603909147596	2321.852173566856	-3476.047276553076	564.1767873238412	2419.642360204531	-3605.852783070526	420.6054777253254	2262.57125870951	-3624.969048376284	389.9341921504263	2380.211274462067	-3454.943494151043	243.37655470595	2256.309534205635	-3462.789844851737	359.1401122666729	2320.693205910053	-3592.666096628758	279.2964572080547	2314.885276507531	-3379.784314822222	105.5016760371904	2275.253835484454	-3427.555236164921	104.129401453193	2363.753177314783	-3535.257133862453	55.82679594060938	2304.158900199412	-3481.343794149554	53.9671195417101	2224.796478057375	-3312.824591728881	94.57103783599605	2338.242190816667	-3151.483359362783	691.5598504930139	2553.536653773787	
161	31.08	-3583.081305841672	1018.33994473872	2526.498340834275	-3661.769337803776	933.1804893708821	2669.544098490268	-3589.780043433764	681.7234702321753	2537.731608777776	-3368.036106505964	630.5198557859953	2633.443909873535	-3363.040652080362	639.4273723665748	2397.811834797576	-3162.556369977477	682.700523035861	2446.151415293355	-3234.844177018622	649.4218668018926	2717.310076923064	-3279.586075401356	624.9642109191726	2320.354271541504	-3432.867405889834	606.2947940861018	2713.105520058341	-3358.373767067863	438.3476065487134	2746.139847410062	-3478.374118524531	483.0844590355819	2801.702286381048	-3532.654912305255	423.1951591481829	2805.823080184366	-3592.251442383067	390.5769207042451	2706.793479123338	-3452.470112675855	393.5672751161794	2746.849588899473	-3544.068922310535	300.3469962482885	2708.608086712976	-3419.91456144617	230.8653898478194	2789.615512745941	-3357.481767137208	97.14470333345889	2756.621701955823	-3402.0652047359	104.7574904293967	2668.63004854698	-3509.249501556576	53.49971333461609	2716.643794584603	-3468.209805900647	49.9107576669439	2810.918419236278	-3299.621320534817	87.37721213430039	2689.088929744868	-3469.805542511384	487.3642314954972	2267.311944836214	-3351.038354912626	411.0578034789092	2321.832797873653	-3476.215517273205	563.6955641148623	2419.727748094639	-3606.177127376696	420.4151075661449	2262.541123078218	-3625.329790695274	389.6920305979071	2380.20204496947	-3455.117694212425	243.333591789641	2256.351457204431	-3463.085916930466	359.0959228082813	2320.715455573688	-3592.885398882206	279.1295170632196	2314.886464507719	-3379.818612897429	105.4985398039294	2275.364178521425	-3427.616626794879	104.0929780949437	2363.808722927503	-3535.279514452589	55.81389715388077	2304.159437944452	-3481.353415071902	53.9662111649105	2224.82298545765	-3312.866931709993	94.61156937826166	2338.298404924999	-3151.435733999956	690.6341218605517	2553.559882203683	
162	31.085	-3583.03513107008	1017.71633618282	2526.650038019623	-3661.816214341606	932.4644816527408	2669.560111616684	-3590.089366670592	680.8718517008078	2537.737305022545	-3368.033744321629	629.9497678273526	2633.57977949572	-3363.18224152863	638.97460645329	2397.909724440267	-3162.581235905856	681.8714057674489	2446.197497213308	-3234.776937929248	648.673155584677	2717.36911587891	-3279.831163903588	624.3585258772697	2320.323881816977	-3432.741410743819	605.9467229052348	2713.394069140608	-3358.497210201348	437.830766580926	2746.390360073734	-3478.346515476948	482.7971692945017	2802.097096237235	-3532.67958377152	423.0408286623907	2806.263525200805	-3592.448890845128	390.5387153105079	2707.274732378069	-3452.559374942812	393.5255527153492	2747.046751368883	-3544.228208952541	300.3196733559778	2708.924449509012	-3419.936702494106	230.7743801195444	2789.68762961801	-3357.489180744531	97.10406798277776	2756.459112879637	-3402.264382938552	104.8001506942841	2668.550657638835	-3509.284247414676	53.47113522175069	2716.669978317478	-3468.174614652378	49.91263742956409	2810.882434362285	-3299.746470572452	87.37910232930227	2688.831931913207	-3470.151874578386	487.0574932887279	2267.379318306814	-3351.381808804433	410.5100850465641	2321.821514287155	-3476.38952402175	563.2535130807623	2419.822279078105	-3606.497516962436	420.2334045207398	2262.536092644946	-3625.673821824121	389.456297341667	2380.218517319096	-3455.290422754519	243.2956072870646	2256.402575462632	-3463.374845682925	359.0497750766117	2320.758486165279	-3593.098179620234	278.9669847675431	2314.905846289054	-3379.854986584224	105.4955869698444	2275.471805342549	-3427.678521481115	104.0570336916994	2363.865426874155	-3535.302143747989	55.8018028138459	2304.160261412828	-3481.36441866144	53.96723477863517	2224.849073534498	-3312.906957661622	94.65145904362976	2338.352189629783	-3151.403014583575	689.7901685086504	2553.586087651497	
